<?xml version="1.0" standalone="no"?>
<!DOCTYPE svg PUBLIC "-//W3C//DTD SVG 20010904//EN"
 "http://www.w3.org/TR/2001/REC-SVG-20010904/DTD/svg10.dtd">
<svg version="1.0" xmlns="http://www.w3.org/2000/svg"
 width="773.000000pt" height="773.000000pt" viewBox="0 0 773.000000 773.000000"
 preserveAspectRatio="xMidYMid meet">
<metadata>
Created by potrace 1.14, written by Peter Selinger 2001-2017
</metadata>
<g transform="translate(0.000000,773.000000) scale(0.100000,-0.100000)"
fill="#000000" stroke="none">
<path d="M4277 6993 c-4 -4 -429 -7 -945 -8 l-937 -1 -1 -52 c0 -28 2 -56 5
-61 3 -4 33 -11 66 -14 144 -14 212 -43 247 -104 43 -73 45 -106 43 -1163 -1
-903 -3 -1010 -18 -1055 -34 -103 -111 -141 -327 -161 -36 -4 -67 -8 -70 -11
-2 -2 -5 -29 -5 -59 -1 -42 3 -54 15 -55 8 0 396 -1 862 -1 l848 -1 -59 -57
c-134 -131 -190 -257 -196 -445 -7 -204 44 -329 195 -473 98 -94 210 -163 465
-290 354 -175 470 -316 452 -551 -12 -159 -111 -279 -267 -321 -25 -7 -84 -12
-131 -12 -152 0 -311 71 -415 185 -85 93 -155 220 -204 371 l-22 68 -37 -6
c-20 -3 -54 -8 -76 -12 -22 -3 -42 -8 -44 -10 -3 -3 24 -209 35 -269 2 -10 6
-37 9 -60 3 -22 10 -65 16 -95 6 -30 12 -64 13 -75 2 -11 6 -44 10 -72 9 -59
25 -76 106 -107 63 -25 186 -62 251 -75 29 -6 68 -13 84 -17 17 -3 100 -8 185
-9 169 -4 256 9 400 59 212 73 390 235 464 419 68 171 67 380 -4 532 -51 109
-182 231 -355 332 -38 22 -173 93 -300 157 -139 70 -254 136 -291 165 -105 84
-154 179 -156 299 -2 153 65 268 190 329 50 24 68 27 152 27 136 -1 228 -32
321 -106 75 -60 160 -197 209 -338 13 -36 26 -69 30 -73 4 -5 42 0 83 9 68 16
76 20 72 38 -5 21 -29 191 -40 281 -3 28 -8 59 -10 70 -2 11 -7 47 -10 80 -9
92 -16 150 -18 151 -6 5 -223 46 -305 58 -111 16 -291 18 -371 5 -30 -4 -56
-7 -58 -6 -1 2 5 27 13 57 8 30 26 96 39 145 13 50 35 133 49 185 14 52 26
103 26 112 0 12 -15 22 -52 33 -28 8 -56 15 -62 15 -6 0 -37 -51 -68 -113
-140 -276 -255 -394 -403 -412 -63 -8 -595 -8 -653 0 -91 12 -152 57 -173 125
-19 66 -23 146 -23 585 l-1 440 285 1 c405 1 450 -10 507 -126 18 -36 34 -81
37 -100 3 -19 10 -50 15 -68 5 -18 10 -36 10 -40 1 -4 30 -8 66 -10 l65 -2 0
434 0 434 -32 3 c-18 2 -49 2 -67 -1 l-35 -5 -17 -85 c-32 -161 -78 -221 -185
-246 -33 -7 -611 -15 -634 -9 -14 4 -15 66 -15 502 1 535 1 536 53 550 35 9
534 9 633 0 114 -11 182 -40 227 -98 48 -61 135 -258 156 -352 7 -28 8 -28 59
-22 29 4 58 7 66 8 11 0 12 22 6 121 -4 67 -9 148 -11 181 -1 33 -6 98 -9 145
-3 47 -6 108 -6 136 -1 53 -10 80 -22 67z"/>
</g>
</svg>
